<svg width="140" height="112" viewBox="0 0 140 112" fill="none" xmlns="http://www.w3.org/2000/svg">
<g clip-path="url(#clip0_1281_84)">
<path d="M113.136 23.987V37.7286C113.136 38.8664 112.217 39.7899 111.085 39.7899H95.0235C93.8914 39.7899 92.9727 38.8664 92.9727 37.7286V23.987C92.9727 22.8465 93.8914 21.9258 95.0235 21.9258H111.085C112.217 21.9258 113.136 22.8465 113.136 23.987Z" fill="#555760"/>
<path d="M9.78962 21.9258H2.05078C0.918204 21.9258 0 22.8484 0 23.9871V37.7287C0 38.8673 0.918204 39.7899 2.05078 39.7899H9.78962C10.9222 39.7899 11.8404 38.8673 11.8404 37.7287V23.9871C11.8404 22.8487 10.9222 21.9258 9.78962 21.9258Z" fill="#555760"/>
<path d="M140 23.987V37.7286C140 38.8664 139.081 39.7898 137.949 39.7898H130.211C129.079 39.7898 128.16 38.8664 128.16 37.7286V23.987C128.16 22.8465 129.079 21.9258 130.211 21.9258H137.949C139.081 21.9258 140 22.8465 140 23.987Z" fill="#555760"/>
<path d="M140 31.0586V37.7287C140 38.8665 139.081 39.79 137.949 39.79H130.211C129.079 39.79 128.16 38.8665 128.16 37.7287V31.0586C128.16 32.1964 129.079 33.1198 130.211 33.1198H137.949C139.081 33.1198 140 32.1964 140 31.0586Z" fill="#2E384D"/>
<path d="M11.8399 31.0586V37.7288C11.8399 38.8666 10.9211 39.79 9.78907 39.79H2.05078C0.918751 39.79 0 38.8666 0 37.7288V31.0586C0 32.1964 0.918751 33.1198 2.05078 33.1198H9.78907C10.9211 33.1198 11.8399 32.1964 11.8399 31.0586Z" fill="#2E384D"/>
<path d="M113.136 33.1211V37.73C113.136 38.8678 112.217 39.7912 111.085 39.7912H95.0235C93.8914 39.7912 92.9727 38.8678 92.9727 37.73V33.1211H113.136Z" fill="#2E384D"/>
<path d="M18.6703 13.0497V48.6651C18.6703 50.1822 18.0578 51.5536 17.068 52.5485C16.0809 53.5434 14.7137 54.1563 13.2043 54.1563C12.209 54.1563 11.2766 53.8897 10.4726 53.4197C8.8375 52.4743 7.73828 50.6989 7.73828 48.6651V13.0497C7.73828 11.0159 8.8375 9.24056 10.4726 8.29514C11.2766 7.82517 12.209 7.55859 13.2043 7.55859C16.223 7.55859 18.6703 10.0155 18.6703 13.0497Z" fill="#3FB023"/>
<path d="M18.6704 13.0497V48.6652C18.6704 50.1822 18.0579 51.5537 17.0681 52.5485C16.081 53.5434 14.7138 54.1563 13.2044 54.1563C12.2091 54.1563 11.2767 53.8897 10.4727 53.4198C10.8884 53.1807 11.2684 52.8866 11.6048 52.5485C12.5919 51.5537 13.2044 50.1822 13.2044 48.6652V13.0497C13.2044 11.016 12.1052 9.24331 10.4727 8.29514C11.2767 7.82518 12.2091 7.55859 13.2044 7.55859C16.2231 7.55859 18.6704 10.0156 18.6704 13.0497Z" fill="#4CD62B"/>
<path d="M132.276 13.0498V48.6652C132.276 50.1823 131.663 51.5537 130.673 52.5486C129.686 53.5435 128.319 54.1564 126.81 54.1564C125.814 54.1564 124.882 53.8898 124.078 53.4198C122.443 52.4744 121.344 50.699 121.344 48.6652V13.0498C121.344 11.016 122.443 9.24056 124.078 8.29514C124.882 7.82518 125.814 7.55859 126.81 7.55859C129.829 7.55859 132.276 10.0156 132.276 13.0498Z" fill="#3FB023"/>
<path d="M132.276 13.0498V48.6652C132.276 50.1823 131.663 51.5537 130.673 52.5486C129.686 53.5435 128.319 54.1564 126.81 54.1564C125.814 54.1564 124.882 53.8898 124.078 53.4198C124.494 53.1807 124.874 52.8866 125.21 52.5486C126.197 51.5537 126.81 50.1823 126.81 48.6652V13.0498C126.81 11.016 125.711 9.24331 124.078 8.29514C124.882 7.82518 125.814 7.55859 126.81 7.55859C129.829 7.55859 132.276 10.0156 132.276 13.0498Z" fill="#4DD82B"/>
<path d="M97.072 23.8058V37.7288C97.072 38.1822 96.9216 38.6247 96.6454 38.9848L85.9212 52.9737L89.1095 86.5114C89.1642 87.0886 88.9728 87.663 88.5845 88.0945C88.1962 88.5232 87.6466 88.7678 87.0669 88.7678H52.9309C52.3513 88.7678 51.8016 88.5232 51.4134 88.0945C51.0251 87.663 50.8337 87.0886 50.8884 86.5114L51.4708 80.3937L51.5747 79.2943L54.0438 53.298L43.738 45.3004C43.2348 44.9101 42.9395 44.3082 42.9395 43.6706V15.8659C42.9395 14.7281 43.8583 13.8047 44.9903 13.8047H87.1161C92.604 13.8047 97.072 18.2899 97.072 23.8058Z" fill="#FFD3C0"/>
<path d="M97.0736 23.8058V37.7288C97.0736 38.1822 96.9232 38.6247 96.647 38.9848L85.9228 52.9737L89.1111 86.5114C89.1658 87.0886 88.9744 87.663 88.5861 88.0945C88.1978 88.5232 87.6482 88.7678 87.0685 88.7678H52.9325C52.3529 88.7678 51.8032 88.5232 51.415 88.0945C51.0267 87.663 50.8353 87.0886 50.89 86.5114L51.4724 80.3937L51.5763 79.2943H79.6857C80.2654 79.2943 80.815 79.0497 81.2033 78.621C81.5916 78.1895 81.783 77.6151 81.7283 77.038L79.6337 52.8445L91.4517 37.2066C91.7279 36.8466 91.8783 36.4041 91.8783 35.9479V22.0276C91.8783 18.6225 88.5369 15.6103 85.9419 13.8047H87.1177C92.6056 13.8047 97.0736 18.2899 97.0736 23.8058Z" fill="#FFB9A1"/>
<path d="M85.8321 23.9872V31.4077C85.8321 31.8062 85.7172 32.1992 85.4985 32.5317L85.1157 33.1199L81.3942 38.8529C81.0169 39.4383 80.3688 39.7901 79.677 39.7901H28.916C27.784 39.7901 26.8652 38.8666 26.8652 37.7288V23.9872C26.8652 23.4348 27.084 22.9071 27.475 22.5196C27.8633 22.1321 28.3965 21.9177 28.9406 21.926H83.8032C84.927 21.937 85.8321 22.8577 85.8321 23.9872Z" fill="#555760"/>
<path d="M26.8652 33.1211H85.1157L81.3942 38.8541C81.0169 39.4395 80.3688 39.7912 79.677 39.7912H28.916C27.784 39.7912 26.8652 38.8678 26.8652 37.73V33.1211Z" fill="#2E384D"/>
<path d="M30.9664 6.17822V55.5353C30.9664 58.9432 28.2102 61.7135 24.8195 61.7135C23.7012 61.7135 22.6512 61.4112 21.7461 60.8807C19.9086 59.8144 18.6699 57.8191 18.6699 55.5353V6.17822C18.6699 3.89436 19.9086 1.89909 21.7461 0.83274C22.6512 0.302314 23.7012 0 24.8195 0C28.2102 0 30.9664 2.7703 30.9664 6.17822Z" fill="#EE1313"/>
<path d="M30.9664 6.17822V55.5353C30.9664 58.9432 28.2101 61.7135 24.8195 61.7135C23.7012 61.7135 22.6512 61.4112 21.7461 60.8808C23.5808 59.8144 24.8195 57.8164 24.8195 55.5353V6.17822C24.8195 3.89711 23.5808 1.89909 21.7461 0.83274C22.6512 0.302315 23.7012 0 24.8195 0C28.2101 0 30.9664 2.7703 30.9664 6.17822Z" fill="#FF3B3B"/>
<path d="M121.33 6.17822V55.5353C121.33 58.9432 118.573 61.7135 115.183 61.7135C114.064 61.7135 113.014 61.4112 112.109 60.8807C110.272 59.8144 109.033 57.8191 109.033 55.5353V6.17822C109.033 3.89437 110.272 1.89909 112.109 0.832741C113.014 0.302316 114.064 0 115.183 0C118.573 0 121.33 2.77031 121.33 6.17822Z" fill="#EE1313"/>
<path d="M121.329 6.17822V55.5353C121.329 58.9432 118.573 61.7135 115.182 61.7135C114.064 61.7135 113.014 61.4112 112.109 60.8807C113.944 59.8144 115.182 57.8164 115.182 55.5353V6.17822C115.182 3.89712 113.944 1.89909 112.109 0.832741C113.014 0.302316 114.064 0 115.182 0C118.573 0 121.329 2.77031 121.329 6.17822Z" fill="#FF3B3B"/>
<path d="M48.3027 8.4043C45.3416 8.4043 42.9414 10.8168 42.9414 13.7929V25.6703C42.9414 28.6465 45.3416 31.0589 48.3027 31.0589C51.2638 31.0589 53.664 28.6465 53.664 25.6703V13.7929C53.664 10.817 51.2635 8.4043 48.3027 8.4043Z" fill="#FFD3C0"/>
<path d="M59.0254 8.4043C56.0643 8.4043 53.6641 10.8168 53.6641 13.7929V25.6703C53.6641 28.6465 56.0643 31.0589 59.0254 31.0589C61.9864 31.0589 64.3867 28.6465 64.3867 25.6703V13.7929C64.3867 10.817 61.9864 8.4043 59.0254 8.4043Z" fill="#FFB9A1"/>
<path d="M69.748 8.4043C66.787 8.4043 64.3867 10.8168 64.3867 13.7929V25.6703C64.3867 28.6465 66.787 31.0589 69.748 31.0589C72.7091 31.0589 75.1093 28.6465 75.1093 25.6703V13.7929C75.1093 10.817 72.7091 8.4043 69.748 8.4043Z" fill="#FFD3C0"/>
<path d="M80.4707 8.4043C77.5096 8.4043 75.1094 10.8168 75.1094 13.7929V25.6703C75.1094 28.6465 77.5096 31.0589 80.4707 31.0589C83.4317 31.0589 85.832 28.6465 85.832 25.6703V13.7929C85.8317 10.817 83.4315 8.4043 80.4707 8.4043Z" fill="#FFB9A1"/>
<path d="M97.6511 111.307C97.2601 111.747 96.7024 112 96.1173 112H43.8852C43.3 112 42.7422 111.747 42.3512 111.307C41.9629 110.868 41.7796 110.282 41.848 109.697L42.4194 104.854L44.5852 86.4659C44.7055 85.4298 45.5805 84.6465 46.6223 84.6465H93.38C94.4218 84.6465 95.2968 85.4298 95.4172 86.4659L98.1543 109.697C98.2226 110.282 98.0394 110.868 97.6511 111.307Z" fill="#EEF6FF"/>
<path d="M97.6511 111.307C97.2601 111.747 96.7024 112 96.1173 112H43.8852C43.3 112 42.7422 111.747 42.3512 111.307C41.9629 110.868 41.7796 110.282 41.848 109.697L42.4194 104.854H87.9223C88.5075 104.854 89.0652 104.602 89.4535 104.162C89.8445 103.722 90.0251 103.137 89.9567 102.551L88.1493 86.4659C88.0262 85.4298 87.1511 84.6465 86.1121 84.6465H93.38C94.4218 84.6465 95.2968 85.4298 95.4172 86.4659L98.1543 109.697C98.2226 110.282 98.0394 110.868 97.6511 111.307Z" fill="#DAE6EF"/>
</g>
<defs>
<clipPath id="clip0_1281_84">
<rect width="140" height="112" fill="white"/>
</clipPath>
</defs>
</svg>
