<svg width="152" height="78" viewBox="0 0 152 78" fill="none" xmlns="http://www.w3.org/2000/svg">
<g clip-path="url(#clip0_1281_109)">
<path d="M76 0C22.2567 0.952301 0 39 0 39C0 39 22.2567 77.0477 76 78C129.744 77.0477 152 39 152 39C152 39 129.744 0.952301 76 0Z" fill="#D8ECFE"/>
<path d="M142.543 27.3359C143.242 28.3583 143.584 28.9425 143.584 28.9425C143.584 28.9425 121.328 66.9902 67.5847 67.9428C33.5672 67.3399 12.1694 51.8772 1.04102 40.6063C5.99081 47.8481 28.9063 77.1648 76.0002 77.9994C129.743 77.0471 152 38.9994 152 38.9994C152 38.9994 148.996 33.8716 142.543 27.3359Z" fill="#C4E2FF"/>
<path d="M76.0008 78C97.6289 78 115.162 60.5391 115.162 39C115.162 17.4609 97.6289 0 76.0008 0C54.3728 0 36.8398 17.4609 36.8398 39C36.8398 60.5391 54.3728 78 76.0008 78Z" fill="#4DD82B"/>
<path d="M76.0008 60.79C63.9364 60.79 54.1211 51.0154 54.1211 39.0006C54.1211 26.9855 63.9361 17.2109 76.0008 17.2109C88.0652 17.2109 97.8802 26.9855 97.8802 39.0006C97.8802 51.0154 88.0652 60.79 76.0008 60.79Z" fill="#465A61"/>
<path d="M89.0675 36.5265C83.2309 36.5265 78.4824 31.7975 78.4824 25.9849C78.4824 20.1721 83.2309 15.4434 89.0675 15.4434C94.9041 15.4434 99.6526 20.1724 99.6526 25.9849C99.6523 31.7975 94.9041 36.5265 89.0675 36.5265Z" fill="#D8ECFE"/>
<path d="M98.1779 6.85547C102.519 13.1352 105.063 20.7427 105.063 28.9426C105.063 50.4819 87.529 67.9426 65.9011 67.9426C57.667 67.9426 50.0281 65.4098 43.7227 61.0867C50.7842 71.3016 62.6055 77.9996 75.9996 77.9996C97.6278 77.9996 115.161 60.5386 115.161 38.9996C115.161 25.6606 108.435 13.8876 98.1779 6.85547Z" fill="#3FB023"/>
</g>
<defs>
<clipPath id="clip0_1281_109">
<rect width="152" height="78" fill="white"/>
</clipPath>
</defs>
</svg>
