<svg width="188" height="104" viewBox="0 0 188 104" fill="none" xmlns="http://www.w3.org/2000/svg">
<path d="M5.01055 30.5479C22.7873 88.1662 33.4262 63.2922 45.5545 86.0281C49.8211 94.0263 56.7313 100.641 65.6838 102.065L66.1752 102.143C72.3016 103.118 77.8478 98.3841 77.8478 92.1806C77.8478 89.5807 77.0519 87.0431 75.5672 84.9089L70.7687 78.0109C69.0422 75.5291 68.1168 72.5783 68.1168 69.5551V56.8611C68.1168 47.4526 56.9223 42.5437 50.0016 48.9174C47.8336 50.9141 44.3154 49.7351 43.7882 46.8352L38.6954 18.8184C36.9063 8.97605 26.6965 3.10593 17.2904 6.51162C7.49179 10.0595 1.93826 20.5899 5.01055 30.5479Z" fill="url(#paint0_linear_1281_63)"/>
<path d="M182.917 30.5479C165.14 88.1662 154.502 63.2922 142.373 86.0281C138.107 94.0263 131.196 100.641 122.244 102.065L121.753 102.143C115.626 103.118 110.08 98.3841 110.08 92.1806C110.08 89.5807 110.876 87.0431 112.36 84.9089L117.159 78.0109C118.886 75.5291 119.811 72.5783 119.811 69.5551V56.8611C119.811 47.4526 131.005 42.5437 137.926 48.9174C140.094 50.9141 143.612 49.7351 144.139 46.8352L149.232 18.8184C151.021 8.97605 161.231 3.10593 170.637 6.51162C180.436 10.0595 185.989 20.5899 182.917 30.5479Z" fill="url(#paint1_linear_1281_63)"/>
<defs>
<linearGradient id="paint0_linear_1281_63" x1="38.9239" y1="0" x2="38.9239" y2="104" gradientUnits="userSpaceOnUse">
<stop stop-color="#EE1313"/>
<stop offset="1" stop-color="#EE1313" stop-opacity="0"/>
</linearGradient>
<linearGradient id="paint1_linear_1281_63" x1="149.004" y1="0" x2="149.004" y2="104" gradientUnits="userSpaceOnUse">
<stop stop-color="#EE1313"/>
<stop offset="1" stop-color="#EE1313" stop-opacity="0"/>
</linearGradient>
</defs>
</svg>
