<svg width="15" height="15" viewBox="0 0 15 15" fill="none" xmlns="http://www.w3.org/2000/svg">
<path d="M14.8308 7.09207L7.90815 0.169199C7.85457 0.11556 7.79095 0.0730081 7.72091 0.0439757C7.65088 0.0149433 7.57581 0 7.5 0C7.42419 0 7.34912 0.0149433 7.27909 0.0439757C7.20905 0.0730081 7.14543 0.11556 7.09185 0.169199L0.169194 7.09207C0.0884232 7.17275 0.0334068 7.27559 0.0111099 7.38755C-0.0111871 7.49952 0.000237963 7.61559 0.0439387 7.72106C0.0876394 7.82653 0.161651 7.91667 0.256603 7.98005C0.351555 8.04344 0.463179 8.07722 0.577342 8.07713H3.46178V12.1155C3.46178 12.2685 3.52256 12.4152 3.63075 12.5234C3.73894 12.6316 3.88567 12.6924 4.03867 12.6924H10.9613C11.1143 12.6924 11.2611 12.6316 11.3693 12.5234C11.4774 12.4152 11.5382 12.2685 11.5382 12.1155V8.07713H14.4227C14.5368 8.07722 14.6484 8.04344 14.7434 7.98005C14.8384 7.91667 14.9124 7.82653 14.9561 7.72106C14.9998 7.61559 15.0112 7.49952 14.9889 7.38755C14.9666 7.27559 14.9116 7.17275 14.8308 7.09207ZM10.9613 6.92332C10.8083 6.92332 10.6616 6.9841 10.5534 7.09229C10.4452 7.20048 10.3844 7.34722 10.3844 7.50023V11.5386H4.61556V7.50023C4.61556 7.34722 4.55478 7.20048 4.44659 7.09229C4.33841 6.9841 4.19167 6.92332 4.03867 6.92332H1.96981L7.5 1.39296L13.0302 6.92332H10.9613ZM11.5382 14.4231C11.5382 14.5761 11.4774 14.7228 11.3693 14.831C11.2611 14.9392 11.1143 15 10.9613 15H4.03867C3.88567 15 3.73894 14.9392 3.63075 14.831C3.52256 14.7228 3.46178 14.5761 3.46178 14.4231C3.46178 14.2701 3.52256 14.1234 3.63075 14.0152C3.73894 13.907 3.88567 13.8462 4.03867 13.8462H10.9613C11.1143 13.8462 11.2611 13.907 11.3693 14.0152C11.4774 14.1234 11.5382 14.2701 11.5382 14.4231Z" fill="#3FB023"/>
</svg>
