<svg width="59" height="80" viewBox="0 0 59 80" fill="none" xmlns="http://www.w3.org/2000/svg">
<g clip-path="url(#clip0_1281_72)">
<path d="M55.6392 36.3211C54.7902 36.3211 53.95 35.9714 53.3703 35.2944L29.2812 7.16071L5.195 35.2944C4.16738 36.4945 2.32878 36.6651 1.07573 35.6916C-0.177327 34.7097 -0.361767 32.9502 0.659999 31.7557L27.0122 0.975602C28.1277 -0.325201 30.4318 -0.325201 31.5472 0.975602L57.9023 31.7557C58.927 32.9502 58.7397 34.7125 57.4866 35.6916C56.945 36.1141 56.2921 36.3211 55.6392 36.3211Z" fill="#EE1313"/>
<path d="M14.6425 61.4982C13.0235 61.4982 11.7148 60.2478 11.7148 58.7008V33.524C11.7148 31.977 13.0235 30.7266 14.6425 30.7266C16.2615 30.7266 17.5702 31.977 17.5702 33.524V58.7008C17.5702 60.2478 16.2615 61.4982 14.6425 61.4982Z" fill="#EE1313"/>
<path d="M43.9195 61.4971H14.6425C13.0235 61.4971 11.7148 60.2467 11.7148 58.6997C11.7148 57.1527 13.0235 55.9023 14.6425 55.9023H43.9195C45.5385 55.9023 46.8472 57.1527 46.8472 58.6997C46.8472 60.2467 45.5385 61.4971 43.9195 61.4971Z" fill="#EE1313"/>
<path d="M43.9199 61.4982C42.3009 61.4982 40.9922 60.2478 40.9922 58.7008V33.524C40.9922 31.977 42.3009 30.7266 43.9199 30.7266C45.5389 30.7266 46.8476 31.977 46.8476 33.524V58.7008C46.8476 60.2478 45.5389 61.4982 43.9199 61.4982Z" fill="#EE1313"/>
<path d="M14.6433 36.3214H2.92965C1.31063 36.3214 0.00195312 35.071 0.00195312 33.524C0.00195312 31.977 1.31063 30.7266 2.92965 30.7266H14.6433C16.2623 30.7266 17.571 31.977 17.571 33.524C17.571 35.071 16.2623 36.3214 14.6433 36.3214Z" fill="#EE1313"/>
<path d="M55.6365 36.3214H43.9199C42.3009 36.3214 40.9922 35.071 40.9922 33.524C40.9922 31.977 42.3009 30.7266 43.9199 30.7266H55.6365C57.2555 30.7266 58.5642 31.977 58.5642 33.524C58.5642 35.071 57.2555 36.3214 55.6365 36.3214Z" fill="#EE1313"/>
<path d="M34.8727 39.2019H23.598C22.0392 39.2019 20.7793 37.9227 20.7793 36.3402C20.7793 34.7577 22.0392 33.4785 23.598 33.4785H34.8727C36.4315 33.4785 37.6914 34.7577 37.6914 36.3402C37.6914 37.9227 36.4315 39.2019 34.8727 39.2019Z" fill="#EE1313"/>
<path d="M29.2347 44.9223C27.676 44.9223 26.416 43.6431 26.416 42.0606V30.6195C26.416 29.037 27.676 27.7578 29.2347 27.7578C30.7935 27.7578 32.0534 29.037 32.0534 30.6195V42.0606C32.0534 43.6431 30.7935 44.9223 29.2347 44.9223Z" fill="#EE1313"/>
<path d="M44.0753 65.1582H14.4887C12.9449 65.1582 11.6934 66.4097 11.6934 67.9536C11.6934 69.4974 12.9449 70.7489 14.4887 70.7489H44.0753C45.6191 70.7489 46.8707 69.4974 46.8707 67.9536C46.8707 66.4097 45.6191 65.1582 44.0753 65.1582Z" fill="#EE1313"/>
<path d="M44.0753 74.4102H14.4887C12.9449 74.4102 11.6934 75.6617 11.6934 77.2055C11.6934 78.7493 12.9449 80.0009 14.4887 80.0009H44.0753C45.6191 80.0009 46.8707 78.7493 46.8707 77.2055C46.8707 75.6617 45.6191 74.4102 44.0753 74.4102Z" fill="#EE1313"/>
</g>
<defs>
<clipPath id="clip0_1281_72">
<rect width="59" height="80" fill="white"/>
</clipPath>
</defs>
</svg>
