<svg width="96" height="102" viewBox="0 0 96 102" fill="none" xmlns="http://www.w3.org/2000/svg">
<ellipse cx="43.6782" cy="64.8614" rx="43.6782" ry="36.8614" fill="#BA4949"/>
<path fill-rule="evenodd" clip-rule="evenodd" d="M56.008 26.3785C56.3341 25.8064 57.6003 22.2341 57.0261 21.9148C56.4519 21.5954 54.2547 24.6498 53.9286 25.222L44.626 41.548L43.7636 43.2867C43.7506 43.1996 43.7347 43.1129 43.7158 43.0266L43.8102 42.8414L48.6718 31.7603C48.8422 31.372 49.5629 29.0826 49.1551 28.9414C48.7472 28.8002 47.3654 30.8607 47.195 31.2491L43.084 40.619L41.178 33.3959C41.0916 33.0684 40.2548 31.2688 39.9144 31.3267C39.5739 31.3846 39.8587 33.278 39.9451 33.6055L41.8083 40.6664L36.4714 31.2281C36.2331 30.8068 34.6176 28.5226 34.1815 28.6999C33.7455 28.8772 34.6542 31.4489 34.8924 31.8702L41.8357 44.1494C41.8316 44.2643 41.8325 44.3795 41.8386 44.4948C40.7095 44.2004 39.1913 43.9388 38.9966 44.3453C38.7123 44.9387 41.3576 46.7316 41.9536 47.0094L42.6707 46.543C43.3057 46.7034 44.1741 46.8607 44.5154 46.7447L45.2129 47.2386C45.6647 47.0918 47.6773 46.0521 47.4708 45.6192C47.2642 45.1863 44.9166 45.5241 44.4647 45.6709L44.3546 45.4479L44.8106 45.1513C45.3333 44.8113 45.7671 44.3512 46.0758 43.8094L56.008 26.3785Z" fill="#509D69" fill-opacity="0.91"/>
<path fill-rule="evenodd" clip-rule="evenodd" d="M92.019 0.234164C93.2418 1.55409 87.145 12.0033 85.825 13.2261L46.3824 49.7657C44.8777 51.1596 42.5817 51.587 41.0842 50.1854L19.8719 30.3327C18.5582 29.1032 13.0116 19.5807 14.241 18.2671C15.4705 16.9534 22.83 21.7459 24.1437 22.9754L43.5841 41.1698L81.2465 6.27953C82.5664 5.05675 90.7963 -1.08576 92.019 0.234164Z" fill="#398D54"/>
</svg>
