<svg width="486" height="102" viewBox="0 0 486 102" fill="none" xmlns="http://www.w3.org/2000/svg">
<path d="M121.176 80H115.032V46.4H127.848C133.464 46.4 139.752 49.52 139.752 57.296C139.752 65.072 133.464 68.288 127.848 68.288H121.176V80ZM121.176 51.92V62.768H127.272C131.976 62.768 133.56 60.272 133.56 57.296C133.56 54.368 131.976 51.92 127.272 51.92H121.176ZM143.529 67.472C143.529 60.128 149.049 54.416 156.537 54.416C164.025 54.416 169.545 60.128 169.545 67.472C169.545 74.816 164.025 80.528 156.537 80.528C149.049 80.528 143.529 74.816 143.529 67.472ZM156.537 75.056C160.617 75.056 163.449 71.792 163.449 67.472C163.449 63.104 160.617 59.888 156.537 59.888C152.457 59.888 149.577 63.104 149.577 67.472C149.577 71.792 152.457 75.056 156.537 75.056ZM181.214 80H175.214V54.944H179.102L180.254 58.976C181.358 57.008 183.806 54.416 187.838 54.416C191.534 54.416 194.078 55.712 195.374 58.928C196.718 56.768 199.358 54.416 203.342 54.416C208.622 54.416 212.03 57.104 212.03 65.264V80H206.03V66.128C206.03 61.808 204.638 59.984 201.662 59.984C198.734 59.984 196.862 62.048 196.622 65.648V80H190.622V66.128C190.622 61.808 189.182 59.984 186.206 59.984C183.038 59.984 181.214 62.48 181.214 66.416V80ZM217.358 67.472C217.358 60.128 222.878 54.416 230.366 54.416C237.854 54.416 243.374 60.128 243.374 67.472C243.374 74.816 237.854 80.528 230.366 80.528C222.878 80.528 217.358 74.816 217.358 67.472ZM230.366 75.056C234.446 75.056 237.278 71.792 237.278 67.472C237.278 63.104 234.446 59.888 230.366 59.888C226.286 59.888 223.406 63.104 223.406 67.472C223.406 71.792 226.286 75.056 230.366 75.056ZM269.058 80L268.002 76.208C266.226 78.464 263.154 80.528 258.642 80.528C251.922 80.528 247.17 74.72 247.17 67.472C247.17 60.176 251.922 54.416 258.642 54.416C262.818 54.416 265.602 56.672 266.946 58.4V43.856H272.946V80H269.058ZM260.13 75.056C264.162 75.056 266.946 71.696 266.946 67.472C266.946 63.2 264.162 59.888 260.13 59.888C256.002 59.888 253.218 63.104 253.218 67.472C253.218 71.792 256.002 75.056 260.13 75.056ZM278.623 67.472C278.623 60.128 284.143 54.416 291.631 54.416C299.119 54.416 304.639 60.128 304.639 67.472C304.639 74.816 299.119 80.528 291.631 80.528C284.143 80.528 278.623 74.816 278.623 67.472ZM291.631 75.056C295.711 75.056 298.543 71.792 298.543 67.472C298.543 63.104 295.711 59.888 291.631 59.888C287.551 59.888 284.671 63.104 284.671 67.472C284.671 71.792 287.551 75.056 291.631 75.056ZM316.308 80H310.308V54.944H314.148L315.588 59.36C316.932 56.96 319.14 54.08 325.572 54.464L324.756 60.848C318.324 60.416 316.308 63.776 316.308 67.808V80ZM328.076 67.472C328.076 60.128 333.596 54.416 341.084 54.416C348.572 54.416 354.092 60.128 354.092 67.472C354.092 74.816 348.572 80.528 341.084 80.528C333.596 80.528 328.076 74.816 328.076 67.472ZM341.084 75.056C345.164 75.056 347.996 71.792 347.996 67.472C347.996 63.104 345.164 59.888 341.084 59.888C337.004 59.888 334.124 63.104 334.124 67.472C334.124 71.792 337.004 75.056 341.084 75.056ZM366.625 80H360.625V60.416H357.313V55.04H360.625V52.064C360.625 45.92 364.081 43.328 369.025 43.328C370.945 43.328 373.105 43.712 375.169 44.672L373.345 49.568C371.761 48.992 370.513 48.752 369.361 48.752C367.537 48.752 366.529 49.616 366.529 52.064V55.04H374.161V60.416H366.625V80ZM376.451 67.472C376.451 60.128 381.971 54.416 389.459 54.416C396.947 54.416 402.467 60.128 402.467 67.472C402.467 74.816 396.947 80.528 389.459 80.528C381.971 80.528 376.451 74.816 376.451 67.472ZM389.459 75.056C393.539 75.056 396.371 71.792 396.371 67.472C396.371 63.104 393.539 59.888 389.459 59.888C385.379 59.888 382.499 63.104 382.499 67.472C382.499 71.792 385.379 75.056 389.459 75.056ZM425.128 71.744L429.448 75.824C426.664 78.992 423.304 80.528 419.272 80.528C411.784 80.528 406.264 74.816 406.264 67.472C406.264 60.128 411.784 54.416 419.272 54.416C423.256 54.416 426.808 56 429.352 59.024L425.176 63.056C423.448 60.944 421.672 59.888 419.272 59.888C415.192 59.888 412.312 63.104 412.312 67.472C412.312 71.792 415.192 75.056 419.272 75.056C421.288 75.056 423.352 74.336 425.128 71.744ZM452.429 80L451.277 76.16C450.269 78.032 447.389 80.528 443.357 80.528C438.125 80.528 434.189 77.84 434.189 69.872V54.944H440.189V69.056C440.189 73.376 442.109 74.912 445.133 74.912C448.205 74.912 450.317 72.464 450.317 68.528V54.944H456.317V80H452.429ZM461.949 77.168L464.541 72.608C467.565 74.576 470.109 75.44 473.133 75.44C476.541 75.44 477.597 74.384 477.597 72.944C477.597 71.216 475.917 70.592 472.173 70.16C467.133 69.584 462.765 68.096 462.765 62.336C462.765 57.728 466.605 54.416 472.557 54.416C475.437 54.416 479.373 55.136 482.877 57.44L480.237 61.952C477.549 60.272 475.005 59.456 472.461 59.456C469.773 59.456 468.525 60.368 468.525 62.096C468.525 63.776 470.013 64.4 473.853 64.88C478.893 65.552 483.309 66.8 483.309 72.512C483.309 77.216 479.757 80.528 472.941 80.528C469.917 80.528 466.317 79.952 461.949 77.168Z" fill="#BA4949"/>
<ellipse cx="43.6782" cy="64.8614" rx="43.6782" ry="36.8614" fill="#BA4949"/>
<path fill-rule="evenodd" clip-rule="evenodd" d="M56.008 26.3785C56.3341 25.8064 57.6003 22.2341 57.0261 21.9148C56.4519 21.5954 54.2547 24.6498 53.9286 25.222L44.626 41.548L43.7636 43.2867C43.7506 43.1996 43.7347 43.1129 43.7158 43.0266L43.8102 42.8414L48.6718 31.7603C48.8422 31.372 49.5629 29.0826 49.1551 28.9414C48.7472 28.8002 47.3654 30.8607 47.195 31.2491L43.084 40.619L41.178 33.3959C41.0916 33.0684 40.2548 31.2688 39.9144 31.3267C39.5739 31.3846 39.8587 33.278 39.9451 33.6055L41.8083 40.6664L36.4714 31.2281C36.2331 30.8068 34.6176 28.5226 34.1815 28.6999C33.7455 28.8772 34.6542 31.4489 34.8924 31.8702L41.8357 44.1494C41.8316 44.2643 41.8325 44.3795 41.8386 44.4948C40.7095 44.2004 39.1913 43.9388 38.9966 44.3453C38.7123 44.9387 41.3576 46.7316 41.9536 47.0094L42.6707 46.543C43.3057 46.7034 44.1741 46.8607 44.5154 46.7447L45.2129 47.2386C45.6647 47.0918 47.6773 46.0521 47.4708 45.6192C47.2642 45.1863 44.9166 45.5241 44.4647 45.6709L44.3546 45.4479L44.8106 45.1513C45.3333 44.8113 45.7671 44.3512 46.0758 43.8094L56.008 26.3785Z" fill="#509D69" fill-opacity="0.91"/>
<path fill-rule="evenodd" clip-rule="evenodd" d="M92.019 0.234164C93.2418 1.55409 87.145 12.0033 85.825 13.2261L46.3824 49.7657C44.8777 51.1596 42.5817 51.587 41.0842 50.1854L19.8719 30.3327C18.5582 29.1032 13.0116 19.5807 14.241 18.2671C15.4705 16.9534 22.83 21.7459 24.1437 22.9754L43.5841 41.1698L81.2465 6.27953C82.5664 5.05675 90.7963 -1.08576 92.019 0.234164Z" fill="#398D54"/>
</svg>
